<?xml version="1.0" standalone="no"?>
<!DOCTYPE svg PUBLIC "-//W3C//DTD SVG 20010904//EN" "http://www.w3.org/TR/2001/REC-SVG-20010904/DTD/svg10.dtd">
<svg version="1.0" xmlns="http://www.w3.org/2000/svg" width="700.000000pt" height="700.000000pt" viewBox="0 0 700.000000 700.000000" preserveAspectRatio="xMidYMid meet">
  <g transform="translate(0.000000,700.000000) scale(0.100000,-0.100000)" fill="#ffeb3b" stroke="none">
    <path d="M178.5 39.1c-11.4 1.1-17.8 2-22 3-2.2.6-5.1 1.3-6.5 1.6-11.7 2.4-28.8 8.8-42.3 15.7-43.3 22.1-78.6 64-95 112.6-3.2 9.4-5.3 16.7-6.2 21-2.9 14-3.9 19.6-5.1 28.5-1 7.2-1.2 41.8-.3 49 .5 3.8 1.1 9 1.4 11.5.7 5.3 4.2 22.2 5.5 26.5.5 1.6 1.9 6.1 3.1 10 1.2 3.8 2.4 7.4 2.8 8 .3.5.6 1.2.6 1.5.4 3.8 13 29.9 20.7 42.9 22.9 38.8 60 80.8 116.3 131.6 4.9 4.4 9.9 8.9 11.1 10 2.2 2.1 8.4 7.5 22.9 20.2 4.4 3.8 13.4 11.6 20 17.2 6.6 5.7 13.4 11.5 15 13 1.7 1.4 7.3 6.2 12.5 10.6 5.2 4.4 9.7 8.2 10 8.5.7.8 21.6 18.7 27.4 23.5 2.7 2.2 5.8 4.9 7 6 1.3 1.1 4.9 4.2 8.1 7 3.2 2.7 6.3 5.4 6.9 6 .6.5 5.8 5 11.6 10 5.8 4.9 10.7 9.2 11 9.5.3.3 3 2.6 6 5.2 6.4 5.4 13.4 9.1 20.3 10.9 6 1.5 18.1.7 22.2-1.5 1.7-.9 3.5-1.6 4.1-1.6 1.3 0 8.8-5.4 14.4-10.4 5.2-4.7 11.6-10.3 17.9-15.5 2.4-2 5.3-4.5 6.5-5.6 3.4-3.1 12-10.5 36.1-31 30.9-26.4 32.7-27.9 33.9-29 .6-.6 4-3.5 7.6-6.5 9.1-7.8 53.4-46.3 54-47 .3-.3 7.9-7.3 17-15.5 15.1-13.7 48.5-46.6 57-56.1 30.6-34.2 48.8-59.6 63.1-88.3 11.3-22.8 19.6-48.8 22.5-70.6.3-2.8.8-5.9 1.1-7 .8-3.8 1.1-40.1.3-48-1.1-10.9-2-17.7-2.5-19.5-.2-.8-.7-3.1-1-5-1.2-7.2-6.7-26.8-9.7-34.5-12.2-31.3-25.8-52.6-47.2-74.1-28.5-28.4-63.1-46-103.9-52.8-22.2-3.7-53.9-2.2-76.2 3.5-37.9 9.8-76.9 37-103.9 72.4-2 2.7-4.1 5-4.5 5-.5 0-3.7-3.6-7.2-8-9.1-11.6-26.9-29.1-38.2-37.9-5.4-4.2-10.2-7.6-10.7-7.6s-1.5-.6-2.2-1.3c-3.1-2.9-20-11.6-31.5-16.3-7.9-3.1-16.2-5.8-22.3-7-1.4-.3-4.1-.9-6-1.4-1.9-.5-5.5-1.2-8-1.5-2.5-.3-6.5-.8-9-1.1-7-.9-28.7-1.1-36.5-.3z" />
  </g>
</svg>
